<svg version="1.1" id="Layer_1" xmlns="http://www.w3.org/2000/svg" xmlns:xlink="http://www.w3.org/1999/xlink" x="0px" y="0px"
	 width="100%" viewBox="0 0 1024 1024" enable-background="new 0 0 1024 1024" xml:space="preserve">
<path fill="#000000" opacity="1.000000" stroke="none" 
	d="
M365.000000,884.036621 
	C394.626556,884.331726 423.761017,884.330139 452.874878,885.104797 
	C461.772827,885.341553 470.784546,887.041931 479.443939,889.249573 
	C494.969879,893.207825 510.514740,892.873474 526.047852,890.579468 
	C549.626221,887.097534 573.185974,884.782593 597.103760,884.567810 
	C641.746338,884.166748 686.387146,884.180603 731.028442,884.085571 
	C739.290527,884.067932 747.749939,883.577332 755.383118,887.949463 
	C760.639648,890.960388 762.545166,895.520691 761.015808,901.408264 
	C760.557861,903.170959 760.121765,904.978455 760.011169,906.785889 
	C759.359619,917.429138 753.478943,924.506104 742.704346,924.741638 
	C722.588989,925.181396 702.471313,927.557434 682.323059,925.268982 
	C674.151978,924.340820 665.953796,925.254395 657.910278,926.308167 
	C648.334473,927.562744 638.957214,926.469116 629.523193,925.706421 
	C614.932556,924.526794 600.320068,923.532166 585.832153,921.283203 
	C581.340637,920.586060 576.851440,921.517517 572.388489,921.952881 
	C560.262146,923.135986 548.599976,919.381287 536.649231,918.731812 
	C535.408997,918.664490 534.039917,917.981628 533.027466,917.199951 
	C526.951721,912.508850 520.189453,913.945312 513.507446,914.363037 
	C513.041443,920.472473 508.531891,923.267639 501.073364,921.561890 
	C494.467712,920.051086 487.873413,919.862854 481.217194,920.067261 
	C461.624329,920.669006 442.030182,921.226379 422.554871,923.808044 
	C418.787720,924.307434 414.869965,924.313843 411.087555,923.918152 
	C403.598053,923.134583 396.117798,923.938477 388.689392,923.708923 
	C370.559082,923.148254 352.904755,927.003418 335.000305,928.375732 
	C327.072296,928.983276 319.229340,930.430725 311.190643,930.402344 
	C298.950897,930.359070 286.956024,928.567261 275.005707,926.299683 
	C267.862335,924.944214 260.798889,925.750366 253.642975,926.088196 
	C230.378967,927.186768 207.139465,929.125183 183.825882,928.829407 
	C178.007248,928.755615 172.201675,928.011292 166.549316,926.423889 
	C161.369308,924.969299 158.001541,921.219055 157.970917,916.719299 
	C157.933670,911.248718 161.964127,910.098694 166.132629,908.891846 
	C173.704559,906.699768 181.569809,906.382507 189.267273,905.016663 
	C195.242188,903.956482 200.839355,902.053894 205.618607,898.057617 
	C209.458603,894.846863 214.283417,895.164551 218.928955,894.708496 
	C226.865005,893.929443 234.902466,893.425476 242.661438,891.727783 
	C282.904083,882.922607 323.713348,883.801575 365.000000,884.036621 
z"/>
<path fill="#000000" opacity="1.000000" stroke="none" 
	d="
M517.601807,491.925110 
	C517.504944,519.944702 517.504944,547.549255 517.504944,575.272949 
	C513.528015,575.272949 509.961151,575.272949 506.529968,575.272949 
	C505.203064,573.118774 505.697479,571.071045 505.694672,569.128357 
	C505.658936,544.470276 505.679779,519.812195 505.669037,495.154053 
	C505.666168,488.533600 505.435455,488.306976 499.008972,488.293121 
	C492.344666,488.278778 485.680115,488.273376 479.015961,488.312012 
	C467.831909,488.376801 458.063721,484.742950 450.133942,476.824524 
	C447.479218,474.173615 445.278412,474.225891 442.239441,475.970520 
	C424.475250,486.168884 406.639557,496.242767 388.811523,506.329620 
	C387.396545,507.130219 386.187378,508.433044 383.964813,508.396118 
	C382.425415,505.534790 380.798248,502.510345 378.747162,498.697968 
	C385.178192,494.956818 391.556641,491.213501 397.966339,487.524445 
	C410.668671,480.213684 423.347229,472.859741 436.129974,465.691864 
	C439.277863,463.926666 440.168976,461.927490 439.273926,458.397217 
	C435.646118,444.088440 438.860382,431.398560 448.841217,420.460419 
	C449.372772,419.877899 449.737946,419.143555 450.505585,417.992584 
	C443.071899,413.462616 435.875153,409.041412 428.643707,404.677704 
	C413.385406,395.470093 398.179169,386.172302 382.790161,377.187988 
	C378.982666,374.965118 378.037506,373.001251 381.033478,369.593719 
	C382.327148,368.122253 382.199646,365.757294 384.494232,364.205139 
	C391.826721,368.646790 399.310150,373.211456 406.824188,377.725189 
	C424.098114,388.101654 441.430084,398.382507 458.638733,408.865906 
	C462.830688,411.419617 465.399750,410.318176 467.497864,406.344391 
	C474.752411,392.604401 486.101440,383.925018 500.949097,379.845551 
	C505.281830,378.655060 505.591095,375.648804 505.596039,372.183929 
	C505.625122,351.691284 505.635803,331.198608 505.660522,310.705963 
	C505.673431,299.996582 505.680664,299.996582 517.173950,301.290771 
	C517.408997,304.974121 517.856995,308.740936 517.855164,312.507568 
	C517.845337,332.663239 517.761292,352.819122 517.604614,372.974152 
	C517.577087,376.519318 518.675232,378.384064 522.497620,379.042206 
	C538.924988,381.870758 551.368958,390.653656 559.428833,405.234924 
	C561.718262,409.376740 564.047119,408.492584 567.049011,406.697388 
	C587.346924,394.558563 607.654968,382.436768 627.958496,370.307343 
	C631.372986,368.267517 634.781067,366.217072 638.315125,364.097778 
	C641.095215,366.419495 641.985107,369.762299 643.577393,372.564331 
	C645.067017,375.185791 642.038269,375.869751 640.548340,376.767426 
	C626.568237,385.190826 612.510132,393.484741 598.486694,401.836487 
	C589.505005,407.185608 580.543762,412.569153 571.691223,417.866760 
	C572.341248,420.712585 574.410400,421.462585 575.812134,422.758331 
	C586.370789,432.518585 590.342346,444.516083 587.314148,458.471863 
	C586.309143,463.103638 587.498413,465.290894 591.442871,467.537262 
	C607.794189,476.849213 623.962646,486.482605 640.182800,496.024200 
	C641.448730,496.768951 642.906189,497.325531 643.772766,498.962616 
	C642.281128,501.912689 640.731689,504.977051 639.202454,508.001495 
	C636.766418,508.784027 635.336731,506.984650 633.716125,506.035095 
	C617.621399,496.604065 601.536926,487.153961 585.541443,477.556183 
	C581.846436,475.339050 579.313538,474.854919 575.641235,478.355438 
	C568.707336,484.964874 560.089417,488.429565 550.249939,488.325928 
	C541.420654,488.232910 532.589478,488.331879 523.759338,488.298645 
	C521.125183,488.288727 518.701355,488.515900 517.601807,491.925110 
M455.451416,462.972015 
	C460.564331,470.367310 467.502106,475.415436 476.510712,475.556702 
	C501.142090,475.942841 525.786865,475.934326 550.419495,475.590057 
	C563.403137,475.408600 573.369568,465.569519 575.126892,452.464966 
	C576.636658,441.206726 569.001465,430.023376 557.051147,426.491516 
	C554.228943,425.657471 553.120483,424.305969 552.427429,421.521454 
	C548.305969,404.964081 533.869263,392.201691 518.563782,391.284454 
	C498.779449,390.098877 483.644501,399.421570 476.975037,417.150909 
	C475.983795,419.785889 474.721619,421.185852 471.908051,421.785004 
	C452.840942,425.845398 445.951691,447.244598 455.451416,462.972015 
z"/>
<path fill="#000000" opacity="1.000000" stroke="none" 
	d="
M604.249756,666.343811 
	C585.689087,674.497314 566.827209,680.542358 547.258362,684.004333 
	C525.514832,687.851074 503.672302,688.117798 481.641937,685.597351 
	C448.570740,681.813599 418.430847,670.262207 390.074310,653.376160 
	C388.702972,652.559631 387.001740,652.049011 386.343323,649.972290 
	C388.395325,648.856995 389.755951,650.438904 391.166351,651.192261 
	C419.339539,666.240356 449.327545,674.886292 481.226746,676.830566 
	C538.437683,680.317566 590.123535,664.254883 637.217468,632.385437 
	C686.575195,598.984009 721.222656,554.182312 740.453491,497.667664 
	C743.614441,488.378693 746.339233,478.928772 747.727722,469.164612 
	C747.934143,467.712433 748.070496,466.254517 750.068909,465.024323 
	C751.259338,471.068359 749.640137,476.531708 748.748352,481.864258 
	C740.064209,533.792358 716.672302,578.164368 679.234985,615.075806 
	C657.447632,636.557129 632.461853,653.512024 604.249756,666.343811 
z"/>
<path fill="#000000" opacity="1.000000" stroke="none" 
	d="
M309.885925,293.924896 
	C344.795319,245.430252 390.670135,212.843384 447.451447,195.626526 
	C474.148682,187.531540 501.546112,184.070190 529.347534,185.952103 
	C566.699524,188.480453 601.492737,199.612213 633.311401,219.551285 
	C636.825317,221.753296 641.033936,223.164734 643.502197,227.048172 
	C641.699463,228.135895 640.653992,226.969177 639.594788,226.362701 
	C614.465576,211.974274 587.637085,202.286469 559.022034,197.905090 
	C540.375977,195.050095 521.619629,194.434509 502.763702,196.374405 
	C447.485809,202.061340 399.020386,223.616959 357.000824,259.520020 
	C312.767975,297.314209 284.363678,344.918671 271.488586,401.717010 
	C271.104065,403.413330 271.307983,405.371429 269.471863,406.522919 
	C264.596741,389.384308 286.740845,327.627991 309.885925,293.924896 
z"/>
<path fill="#000000" opacity="1.000000" stroke="none" 
	d="
M492.937775,288.148743 
	C482.408569,278.744843 479.237549,266.826904 483.636993,254.044250 
	C487.520325,242.761124 498.281647,234.847458 510.957489,233.953384 
	C524.594849,232.991486 538.743591,244.827026 541.232971,259.279083 
	C543.362549,271.642548 538.029419,283.837372 527.693176,290.239410 
	C516.352844,297.263367 504.897278,296.642517 492.937775,288.148743 
z"/>
<path fill="#000000" opacity="1.000000" stroke="none" 
	d="
M531.974182,589.997559 
	C541.469788,599.713562 544.372803,610.643494 539.444580,623.141418 
	C534.773376,634.987549 525.750610,641.409546 513.192627,642.194214 
	C499.633575,643.041443 487.823395,634.502930 483.515442,621.534485 
	C479.281342,608.788513 483.995361,594.589722 494.932800,587.144531 
	C506.689606,579.141602 520.081421,580.089233 531.974182,589.997559 
z"/>
<path fill="#000000" opacity="1.000000" stroke="none" 
	d="
M645.456726,340.742065 
	C651.899414,326.772095 666.544434,319.906189 680.264404,324.115570 
	C694.314636,328.426331 702.780518,342.465088 700.305176,357.348328 
	C697.971497,371.379395 684.843567,381.893127 670.213074,381.143860 
	C653.569458,380.291534 637.502075,362.707611 645.456726,340.742065 
z"/>
<path fill="#000000" opacity="1.000000" stroke="none" 
	d="
M354.408386,323.225922 
	C370.133972,326.392426 379.246552,336.891266 379.359985,351.598511 
	C379.472687,366.205536 370.401215,377.557068 356.208252,380.569305 
	C342.089325,383.565826 327.024292,373.956390 323.299377,359.577881 
	C319.549774,345.104095 327.739655,329.131226 341.258179,324.775482 
	C345.369781,323.450684 349.571777,322.296387 354.408386,323.225922 
z"/>
<path fill="#000000" opacity="1.000000" stroke="none" 
	d="
M659.138306,493.888885 
	C677.733521,484.914093 696.804077,496.724670 700.096802,513.945374 
	C702.908386,528.649414 694.913330,542.303833 681.224854,546.861023 
	C667.933105,551.286133 652.790833,545.100037 646.831360,532.810059 
	C640.120972,518.971558 644.081909,503.871277 656.664734,495.354065 
	C657.353394,494.887909 658.087524,494.488983 659.138306,493.888885 
z"/>
<path fill="#000000" opacity="1.000000" stroke="none" 
	d="
M344.888885,491.450073 
	C361.258301,488.597107 375.953949,498.657471 379.004150,514.413574 
	C381.946075,529.610413 371.671173,544.688171 356.166351,547.926514 
	C341.863525,550.913879 326.590271,540.939941 323.193909,526.394287 
	C319.522186,510.669342 328.415833,496.113159 344.888885,491.450073 
z"/>
<path fill="#000000" opacity="1.000000" stroke="none" 
	d="
M571.744263,572.690063 
	C594.356384,558.948730 616.656128,545.394226 639.155762,531.718201 
	C640.891907,534.639893 642.305603,537.055237 643.754944,539.448975 
	C645.580811,542.464294 642.922058,543.243713 641.222961,544.290894 
	C629.171997,551.718140 617.077515,559.074707 604.994629,566.450073 
	C587.225342,577.296326 569.458679,588.146973 551.675537,598.970520 
	C550.149597,599.899292 548.750305,601.260803 546.383972,600.890686 
	C544.847046,598.002991 543.226807,594.958801 541.287903,591.315857 
	C551.409668,585.124390 561.420837,579.000549 571.744263,572.690063 
z"/>
<path fill="#000000" opacity="1.000000" stroke="none" 
	d="
M411.176331,548.765198 
	C433.445312,562.179504 455.353485,575.492126 477.392578,588.584229 
	C480.897949,590.666565 482.671570,592.389404 479.566895,596.077820 
	C478.307556,597.573914 478.526154,599.949402 476.590973,601.414307 
	C473.082214,600.534790 470.168030,598.243225 467.107513,596.392517 
	C439.189545,579.510132 411.335144,562.522705 383.471832,545.550049 
	C377.841949,542.120605 377.836792,542.075500 381.136505,536.455200 
	C381.950836,535.068115 382.229675,533.263367 384.448395,532.268921 
	C393.090759,537.609924 401.974762,543.100220 411.176331,548.765198 
z"/>
<path fill="#000000" opacity="1.000000" stroke="none" 
	d="
M441.767487,294.709167 
	C453.457764,288.047882 464.832336,281.572510 475.955963,275.239990 
	C476.617828,275.685394 476.814117,275.746185 476.885834,275.875885 
	C482.120911,285.341461 482.097595,285.302673 472.820190,290.620148 
	C444.230835,307.006592 415.660492,323.426147 387.081024,339.829834 
	C386.380676,340.231781 385.660065,340.598450 384.809906,341.056427 
	C382.232269,338.731567 381.637878,335.465668 380.116425,332.793701 
	C378.607422,330.143677 381.511383,329.502106 383.074310,328.596100 
	C402.513123,317.327362 421.986969,306.118988 441.767487,294.709167 
z"/>
<path fill="#000000" opacity="1.000000" stroke="none" 
	d="
M550.934937,277.018494 
	C582.139160,295.119690 613.044067,313.015656 643.712097,330.774445 
	C643.650635,331.722351 643.743652,332.117340 643.592163,332.359131 
	C638.080933,341.157410 638.100037,341.116913 628.960388,335.830719 
	C602.026428,320.252625 575.066284,304.719696 548.140442,289.127502 
	C546.028137,287.904297 543.652649,286.987640 541.933228,284.791321 
	C543.226074,282.113770 544.468140,279.427582 545.809814,276.792084 
	C547.390564,273.686920 549.027893,275.961823 550.934937,277.018494 
z"/>
<path fill="#000000" opacity="1.000000" stroke="none" 
	d="
M707.185303,753.989990 
	C707.166748,756.982788 706.935608,759.499146 707.169495,761.971497 
	C707.608582,766.613037 705.184509,767.517273 701.171936,767.562805 
	C696.814758,767.612244 696.874573,764.955811 696.877380,761.963745 
	C696.888184,750.312988 696.830078,738.662048 696.890991,727.011658 
	C696.902466,724.805481 696.146667,721.737122 699.180237,721.118652 
	C702.469421,720.447998 706.111023,719.662231 708.739380,723.230591 
	C714.363464,730.866150 720.092773,738.424561 725.813171,745.988586 
	C726.773254,747.258057 727.435120,748.857117 729.776489,749.741516 
	C729.776489,741.846008 729.860596,734.260315 729.739624,726.677979 
	C729.682495,723.094849 730.066223,720.606445 734.725037,720.636169 
	C739.101196,720.664185 740.109863,722.765747 740.091614,726.495911 
	C740.035461,737.979858 740.152893,749.464905 740.037659,760.947937 
	C740.015076,763.203125 741.227051,766.614624 737.682251,767.146667 
	C734.291199,767.655640 730.604675,768.751831 727.828735,764.691101 
	C722.385742,756.729004 716.490906,749.075439 710.764771,741.307617 
	C709.991821,740.258972 709.112976,739.288269 707.817017,737.715820 
	C706.616028,743.395264 707.468689,748.478455 707.185303,753.989990 
z"/>
<path fill="#000000" opacity="1.000000" stroke="none" 
	d="
M320.225220,585.799683 
	C329.765961,599.860596 340.841614,612.194031 352.802063,624.408081 
	C350.082642,625.353699 348.985687,623.845886 347.806915,622.889038 
	C313.402893,594.962280 289.173523,559.991638 275.254639,517.906311 
	C273.738159,513.321106 272.495605,508.639526 270.834442,504.109497 
	C269.177307,499.590607 270.386261,497.198669 275.286957,496.822174 
	C276.421204,496.735016 277.535400,496.386597 279.416992,496.004395 
	C287.673492,528.317627 301.097900,558.185730 320.225220,585.799683 
z"/>
<path fill="#000000" opacity="1.000000" stroke="none" 
	d="
M488.160706,758.763794 
	C493.471252,758.764221 498.305023,758.838989 503.134521,758.727417 
	C506.028168,758.660522 507.441833,759.682983 507.409637,762.763428 
	C507.380219,765.576660 506.974518,767.817688 503.507904,767.823975 
	C493.845215,767.841553 484.182434,767.865051 474.519836,767.835632 
	C471.925171,767.827698 470.640259,766.571899 470.656403,763.797485 
	C470.732147,750.801575 470.743164,737.804749 470.676117,724.808838 
	C470.660248,721.731384 472.122040,720.707886 474.962067,720.720520 
	C484.292542,720.761902 493.624054,720.789734 502.953613,720.683838 
	C506.207092,720.646973 507.327209,722.037292 507.340546,725.194336 
	C507.354523,728.497620 505.991577,729.565186 502.809235,729.453186 
	C497.483856,729.265808 492.146393,729.455750 486.815918,729.368469 
	C483.000397,729.306091 481.012787,730.556091 481.028320,734.861450 
	C481.043549,739.083740 483.035095,739.870422 486.621338,739.726074 
	C491.278717,739.538635 495.951050,739.758545 500.614899,739.681702 
	C503.467865,739.634705 504.390839,741.044739 504.370178,743.694641 
	C504.349640,746.336426 503.888733,748.313965 500.610443,748.270569 
	C495.779633,748.206604 490.934875,748.490356 486.119080,748.218506 
	C482.011047,747.986633 481.058136,749.812256 481.023041,753.539917 
	C480.986877,757.385742 482.210907,759.224731 486.183563,758.754272 
	C486.675995,758.695984 487.182281,758.754944 488.160706,758.763794 
z"/>
<path fill="#000000" opacity="1.000000" stroke="none" 
	d="
M356.212524,426.000000 
	C356.204742,443.148895 356.200104,459.797791 356.186859,476.446686 
	C356.180756,484.141815 356.173157,484.142914 348.325958,484.225525 
	C347.343872,484.235870 346.361633,484.226929 344.742615,484.226929 
	C344.742615,451.851196 344.742615,419.738159 344.742615,387.486908 
	C348.602783,387.486908 352.014496,387.486908 356.212128,387.486908 
	C356.212128,400.330414 356.212128,412.915192 356.212524,426.000000 
z"/>
<path fill="#000000" opacity="1.000000" stroke="none" 
	d="
M244.893188,720.084167 
	C249.338608,720.327820 253.323990,720.624695 257.314850,720.786804 
	C261.304840,720.948853 262.348236,723.165771 262.003082,726.776550 
	C261.630402,730.675293 259.174774,729.865662 256.570221,729.720337 
	C250.925598,729.405518 245.262024,729.347168 239.606262,729.349121 
	C236.551590,729.350159 234.390747,730.818481 234.445480,734.145264 
	C234.499710,737.439697 236.630371,738.725159 239.720398,738.860779 
	C244.202164,739.057495 248.704712,738.811157 253.151291,739.744141 
	C260.522064,741.290833 263.920776,744.903137 264.256927,751.761658 
	C264.683472,760.463684 261.688110,765.613525 254.167664,767.292114 
	C245.274475,769.277161 236.291916,768.302612 227.432190,766.451477 
	C223.664536,765.664368 224.855469,762.828613 225.145691,760.454651 
	C225.516266,757.423157 227.397659,757.339539 229.866730,757.952332 
	C236.256592,759.538147 242.772507,758.922485 249.248993,758.771179 
	C252.240204,758.701294 253.745453,756.983521 253.922928,754.011658 
	C254.114944,750.796021 252.615707,748.803528 249.474609,748.504028 
	C246.001312,748.172791 242.480316,748.371155 238.996414,748.116028 
	C228.575165,747.352539 223.805298,742.109924 224.591766,732.448242 
	C225.122772,725.924866 228.941010,721.724243 235.480667,720.771790 
	C238.436615,720.341309 241.448868,720.297485 244.893188,720.084167 
z"/>
<path fill="#000000" opacity="1.000000" stroke="none" 
	d="
M371.688019,757.124634 
	C369.062042,757.135376 366.869598,757.375671 364.737793,757.116699 
	C358.774719,756.392517 354.418793,757.710632 352.811646,764.396912 
	C352.133362,767.218750 345.519928,768.808716 342.985107,767.273987 
	C341.447876,766.343140 341.774445,765.028564 342.299500,763.775269 
	C347.958374,750.268494 353.577606,736.744202 359.381378,723.299622 
	C360.779053,720.061890 371.599640,719.196716 373.011688,722.373413 
	C379.468842,736.900696 385.500641,751.617065 391.694092,766.286377 
	C383.831146,769.232666 381.415588,768.436218 379.087555,761.936035 
	C377.822449,758.403625 375.928772,756.622131 371.688019,757.124634 
M361.148041,743.557678 
	C360.699615,744.949463 359.656708,746.873779 361.565948,747.459839 
	C365.020416,748.520142 368.650024,748.577393 372.093933,747.151123 
	C371.511414,742.303772 370.037048,738.550232 366.357361,732.483215 
	C364.131409,735.764099 362.801361,739.322449 361.148041,743.557678 
z"/>
<path fill="#000000" opacity="1.000000" stroke="none" 
	d="
M594.794861,720.517395 
	C601.555786,719.461365 607.844177,720.459412 614.143677,720.867126 
	C617.991028,721.116150 618.546631,723.575989 618.245850,726.815918 
	C617.912476,730.406616 615.720032,729.742493 613.230713,729.601379 
	C607.754028,729.290833 602.254883,729.358154 596.764587,729.311218 
	C593.561890,729.283813 591.628723,730.963440 591.573547,734.110657 
	C591.520996,737.111328 593.566162,738.519836 596.401367,738.757690 
	C600.379639,739.091431 604.376282,739.238647 608.343567,739.665894 
	C616.685242,740.564209 620.886841,744.494202 621.247742,751.529480 
	C621.732971,760.989441 618.501831,765.704651 609.858704,767.454651 
	C601.753662,769.095642 593.645386,768.313965 585.586487,766.773010 
	C582.001770,766.087524 581.798706,763.977966 582.443420,760.853638 
	C583.167786,757.342957 585.110107,757.149658 587.899841,757.890869 
	C593.621521,759.411011 599.472839,758.867432 605.285767,758.897888 
	C608.898804,758.916748 610.901062,757.224976 610.974060,753.490173 
	C611.047974,749.705139 608.491882,748.709412 605.455200,748.423767 
	C601.488892,748.050781 597.488770,748.406982 593.525146,747.586121 
	C584.776611,745.774353 581.487244,741.870483 581.690308,733.168152 
	C581.865784,725.648315 585.724487,721.817200 594.794861,720.517395 
z"/>
<path fill="#000000" opacity="1.000000" stroke="none" 
	d="
M675.976929,484.312439 
	C672.768799,484.319824 669.979187,484.319824 667.312195,484.319824 
	C666.452881,479.832428 666.346741,391.982819 667.100830,387.408020 
	C670.511353,387.408020 673.941101,387.408020 677.284668,387.408020 
	C678.777344,389.101440 678.276855,391.016846 678.278381,392.787048 
	C678.303101,421.452026 678.312866,450.117096 678.224487,478.781830 
	C678.218628,480.688019 679.458984,483.295441 675.976929,484.312439 
z"/>
<path fill="#000000" opacity="1.000000" stroke="none" 
	d="
M286.553040,766.661316 
	C285.071625,752.264587 286.020813,738.138550 285.792755,724.026306 
	C285.749695,721.360107 287.574158,720.737305 289.812775,720.745422 
	C297.630463,720.773865 305.467743,720.468628 313.260681,720.923035 
	C322.080261,721.437134 326.372223,727.443359 326.065094,737.792664 
	C325.788879,747.100769 321.272308,751.970215 312.495178,752.259949 
	C308.506866,752.391663 304.506195,752.431213 300.520599,752.273682 
	C297.244843,752.144104 295.936554,753.548950 296.198303,756.715942 
	C296.280182,757.706848 296.201233,758.710999 296.197021,759.709045 
	C296.161865,768.073547 295.648590,768.470581 286.553040,766.661316 
M299.983124,729.392395 
	C297.932922,729.409607 296.640106,730.090088 296.212433,732.415771 
	C294.454865,741.973145 296.254944,744.142578 305.752441,743.514343 
	C306.909790,743.437805 308.061523,743.169250 309.215698,743.170105 
	C313.664185,743.173401 316.015686,741.324280 315.780914,736.551941 
	C315.539062,731.637146 313.847626,729.678040 308.832123,729.425171 
	C306.184631,729.291626 303.525543,729.388245 299.983124,729.392395 
z"/>
<path fill="#000000" opacity="1.000000" stroke="none" 
	d="
M719.382812,297.691040 
	C733.609924,319.663147 743.923584,342.901306 749.676636,367.579132 
	C748.363831,369.606567 746.784851,369.031342 745.642151,369.565613 
	C740.768066,371.844574 739.402954,369.255676 738.368591,365.004120 
	C735.612915,353.677032 731.751770,342.697632 727.244568,331.937805 
	C715.494019,303.886292 699.469543,278.548767 679.243896,255.846634 
	C678.210327,254.686523 676.460449,253.862473 676.751892,251.821396 
	C683.620178,253.034836 703.718811,274.638428 719.382812,297.691040 
z"/>
<path fill="#000000" opacity="1.000000" stroke="none" 
	d="
M762.906677,406.851013 
	C755.388000,413.403442 746.885315,414.004089 739.880676,408.729279 
	C733.307434,403.779358 730.979248,395.494537 734.130371,388.266846 
	C738.247925,378.822449 748.478882,374.982391 757.846375,379.365295 
	C766.456665,383.393921 769.964844,394.436401 765.399170,403.290039 
	C764.795532,404.460541 763.913940,405.487762 762.906677,406.851013 
z"/>
<path fill="#000000" opacity="1.000000" stroke="none" 
	d="
M280.448212,485.581238 
	C271.846649,490.876862 263.894592,490.428955 257.760712,484.548615 
	C252.246353,479.262177 250.901047,470.591492 254.616074,463.850555 
	C257.997864,457.714325 263.454956,454.835083 270.244659,454.936127 
	C277.306702,455.041168 283.685913,460.059570 285.979156,466.892181 
	C288.422302,474.171478 286.181427,480.246429 280.448212,485.581238 
z"/>
<path fill="#000000" opacity="1.000000" stroke="none" 
	d="
M446.398560,766.544189 
	C437.815247,768.523560 429.551544,768.961487 421.281433,767.386169 
	C414.713104,766.135071 410.514679,762.165894 409.557037,755.468628 
	C408.447113,747.706421 408.343109,739.866455 409.666473,732.117432 
	C410.748291,725.782654 415.534973,721.185425 421.904175,720.858582 
	C428.853607,720.502014 435.822357,719.907227 442.820465,720.661011 
	C446.809753,721.090698 448.477020,722.813904 447.991821,726.813477 
	C447.482758,731.009705 444.751099,729.869019 442.054413,729.707886 
	C436.751770,729.391052 431.421936,729.256958 426.113007,729.401367 
	C421.657959,729.522522 419.605072,732.543518 419.424072,736.646301 
	C419.196930,741.793457 419.208130,746.965271 419.425903,752.113281 
	C419.582825,755.823303 421.469421,758.560913 425.499939,758.744995 
	C430.977783,758.995117 436.473724,759.159180 441.944855,758.459045 
	C443.843201,758.216064 446.339539,756.548401 447.495422,758.517090 
	C448.886047,760.885498 448.994446,763.915222 446.398560,766.544189 
z"/>
<path fill="#000000" opacity="1.000000" stroke="none" 
	d="
M767.179565,724.044922 
	C771.237488,720.783020 775.669678,720.445801 780.239502,720.561523 
	C785.561157,720.696228 790.891602,720.626282 796.204834,720.902710 
	C799.434082,721.070740 801.362854,722.433899 800.767151,726.375793 
	C800.182190,730.246643 798.202271,730.010010 795.157654,729.731262 
	C789.874512,729.247498 784.528931,729.276001 779.213928,729.362549 
	C774.903259,729.432617 772.382935,731.759155 772.317932,736.216492 
	C772.240234,741.540222 772.257141,746.866211 772.308044,752.190552 
	C772.348816,756.445618 774.678467,758.651245 778.830200,758.776489 
	C784.810364,758.956787 790.809448,759.305725 796.751953,758.233337 
	C798.630676,757.894409 800.665405,757.400757 800.992004,760.072815 
	C801.278687,762.418823 802.330078,765.665283 798.989197,766.451111 
	C789.189270,768.756104 779.228271,769.861877 769.628540,765.757019 
	C765.068298,763.806946 762.308350,759.726746 762.050415,754.759216 
	C761.688843,747.793945 761.720093,740.783813 762.061218,733.816345 
	C762.240967,730.146240 763.768127,726.697571 767.179565,724.044922 
z"/>
<path fill="#000000" opacity="1.000000" stroke="none" 
	d="
M651.561035,749.896851 
	C646.901001,739.903687 639.761902,731.846741 634.885742,722.422180 
	C640.543884,719.228333 644.485962,720.159424 647.622925,725.069336 
	C650.453613,729.499878 652.792847,734.292542 656.813721,738.396606 
	C660.721741,734.681702 662.872070,730.181396 665.506714,726.044678 
	C669.222351,720.210632 671.312134,719.475098 678.260254,721.715210 
	C678.980835,723.214050 677.888489,724.226562 677.201416,725.295471 
	C675.045593,728.649170 673.036377,732.125427 670.594238,735.261169 
	C664.503357,743.081970 660.171082,751.317932 661.961487,761.743652 
	C662.680481,765.930664 660.481506,767.641846 656.167847,767.538452 
	C652.981689,767.462036 651.588806,766.545410 651.679626,763.267761 
	C651.799255,758.952026 651.653931,754.628906 651.561035,749.896851 
z"/>
<path fill="#000000" opacity="1.000000" stroke="none" 
	d="
M546.222229,760.987976 
	C543.369263,752.778137 538.856689,746.660767 528.183655,745.346436 
	C532.848328,741.927490 537.404602,742.043457 540.355652,739.145508 
	C543.422852,736.133423 543.742859,731.626648 546.921143,727.417114 
	C549.612000,736.107971 553.714966,742.837830 562.833130,743.740234 
	C562.537170,745.936218 561.489197,746.143188 560.545715,746.410706 
	C554.034546,748.257324 549.988403,752.478210 548.323792,759.017822 
	C548.071899,760.007324 547.755859,760.955505 546.222229,760.987976 
z"/>
<path fill="#000000" opacity="1.000000" stroke="none" 
	d="
M578.010254,799.544678 
	C577.573669,803.962036 579.515076,808.401733 576.263123,812.029846 
	C573.099609,810.639465 574.419434,808.029602 573.569275,805.835632 
	C571.947693,806.899719 571.740723,809.363342 569.695496,809.799316 
	C567.265015,809.566040 567.542175,806.680237 565.736816,805.719727 
	C564.521301,807.545715 566.351013,810.604797 562.336243,811.942444 
	C561.056946,807.079407 561.247864,802.223389 562.078430,797.559326 
	C562.497925,795.203491 564.667664,796.056030 565.769775,797.621704 
	C567.094421,799.503540 568.161255,801.566711 569.673523,804.113708 
	C570.909729,801.938904 571.882690,800.153015 572.929810,798.411865 
	C573.604309,797.290222 574.249451,795.946899 575.874329,796.157227 
	C577.528015,796.371338 577.790894,797.756958 578.010254,799.544678 
z"/>
<path fill="#000000" opacity="1.000000" stroke="none" 
	d="
M398.420593,811.678711 
	C395.740021,807.251709 397.099396,802.762817 397.125854,798.392212 
	C397.136749,796.593201 398.603455,796.113403 400.259644,795.922241 
	C406.089508,795.249207 410.787292,798.492065 411.077850,803.506470 
	C411.370911,808.564087 407.838623,811.854675 401.754272,812.125244 
	C400.775940,812.168762 399.787079,811.976929 398.420593,811.678711 
M401.077454,805.095825 
	C401.239349,806.523987 400.984680,808.350098 403.227600,808.200989 
	C404.750610,808.099854 406.156311,807.429688 406.608490,805.776245 
	C407.100525,803.976990 407.108154,802.181335 405.761627,800.661621 
	C404.942413,799.737000 403.853149,799.140564 402.688782,799.608459 
	C400.455963,800.505798 401.185455,802.597229 401.077454,805.095825 
z"/>
<path fill="#000000" opacity="1.000000" stroke="none" 
	d="
M255.484039,810.757568 
	C250.812729,805.524963 250.927002,800.186157 255.560287,797.305664 
	C259.035553,795.144958 262.642731,795.085449 265.678467,798.009033 
	C268.840485,801.054382 269.221222,804.862061 266.794525,808.468201 
	C264.049530,812.547424 260.149567,813.092224 255.484039,810.757568 
M263.374359,806.885803 
	C265.219269,804.187561 264.829163,801.854736 262.109344,800.050171 
	C260.340759,798.876770 258.547974,799.094421 257.206329,800.746582 
	C255.687653,802.616760 255.586823,804.852295 256.867371,806.797791 
	C258.483551,809.253113 260.683929,809.081543 263.374359,806.885803 
z"/>
<path fill="#000000" opacity="1.000000" stroke="none" 
	d="
M667.243164,805.531616 
	C666.852356,800.599121 668.717285,797.419312 673.215515,796.195435 
	C676.212341,795.380127 678.942932,795.787354 681.316040,799.317322 
	C676.857544,800.414368 669.790710,797.480042 671.495850,805.740234 
	C672.055115,808.449341 674.320862,809.070007 676.802979,808.221802 
	C677.778015,806.010559 674.635071,805.981323 675.451538,803.809570 
	C677.627380,802.556641 680.243896,801.879578 681.591797,805.164856 
	C682.829102,808.180542 681.655396,810.568237 678.193604,811.623840 
	C673.245483,813.132629 669.653564,811.330811 667.243164,805.531616 
z"/>
<path fill="#000000" opacity="1.000000" stroke="none" 
	d="
M279.315002,806.154663 
	C278.954010,808.295349 280.061859,810.626038 277.481995,811.657532 
	C275.826202,809.453247 274.908112,798.728210 276.274017,797.084595 
	C277.632263,795.450317 278.950226,796.141907 279.999664,797.449524 
	C281.636383,799.488953 282.783722,801.932922 284.989197,803.550415 
	C286.899841,801.443481 284.053741,797.697815 288.298126,795.903259 
	C289.968323,800.918945 289.675629,805.855103 288.769867,810.560425 
	C288.322906,812.882385 286.107941,811.737061 284.951874,810.336914 
	C283.575897,808.670654 282.438416,806.807800 281.067291,805.137024 
	C280.039703,803.884766 279.468506,804.461548 279.315002,806.154663 
z"/>
<path fill="#000000" opacity="1.000000" stroke="none" 
	d="
M307.613739,803.166626 
	C308.146301,800.653198 306.529907,797.828064 310.163727,795.735107 
	C312.004883,800.811646 311.582977,805.721008 310.760956,810.420837 
	C310.353210,812.752319 308.222504,811.854797 306.946198,810.453613 
	C305.197784,808.534058 304.204803,805.962769 301.872009,804.394104 
	C300.208862,806.627197 302.478912,809.956848 299.434875,811.784607 
	C296.386505,810.635254 297.495056,807.917297 297.673889,805.928101 
	C297.959991,802.745605 295.906219,797.950806 298.986053,796.724915 
	C302.782440,795.213867 303.058289,800.984985 305.605988,802.827209 
	C306.126678,803.203796 306.546906,803.717651 307.039337,804.137878 
	C307.088867,804.180176 307.360199,804.045410 307.453003,803.931335 
	C307.549194,803.813049 307.553375,803.619995 307.613739,803.166626 
z"/>
<path fill="#000000" opacity="1.000000" stroke="none" 
	d="
M450.460388,806.777466 
	C450.811493,808.535767 452.341003,809.597412 451.564301,811.461792 
	C447.713654,812.952576 447.731689,807.235413 444.563690,807.531128 
	C442.708740,808.226685 443.832794,810.800293 441.925629,811.565063 
	C439.754669,811.684021 439.852448,809.994873 439.786072,808.526367 
	C439.711121,806.867615 439.545105,805.169556 439.802124,803.549316 
	C440.207855,800.991516 438.138733,797.340332 441.905334,796.176758 
	C444.876068,795.259033 448.341461,795.286438 450.852356,797.729187 
	C453.830261,800.626343 451.538330,803.555054 450.460388,806.777466 
M444.267059,802.945923 
	C446.226044,803.538696 447.895813,803.244507 448.179199,800.940002 
	C448.311340,799.865784 447.084045,799.429871 446.072968,799.475403 
	C444.134338,799.562744 442.950165,800.322205 444.267059,802.945923 
z"/>
<path fill="#000000" opacity="1.000000" stroke="none" 
	d="
M655.136230,811.485901 
	C649.360291,812.474792 645.807251,810.569824 644.599304,806.174988 
	C643.490295,802.139832 645.626160,797.870422 649.482544,796.413818 
	C653.260742,794.986816 657.447083,796.526123 659.339844,800.038269 
	C661.581360,804.197510 660.214600,808.234619 655.136230,811.485901 
M651.736755,808.515808 
	C653.744324,808.674683 655.339539,807.933411 656.156189,806.084045 
	C657.213013,803.690979 656.738098,801.495605 654.507324,800.032837 
	C652.617615,798.793640 650.530884,798.991272 649.275574,800.901733 
	C647.358337,803.819885 647.708496,806.497070 651.736755,808.515808 
z"/>
<path fill="#000000" opacity="1.000000" stroke="none" 
	d="
M482.238464,810.196594 
	C481.177155,811.284241 480.332489,812.331970 479.035553,811.581360 
	C477.962250,810.960266 478.232056,809.847595 478.627136,808.904968 
	C480.168945,805.226074 481.660645,801.521667 483.354980,797.913086 
	C484.306793,795.885986 486.334045,794.917847 487.476501,797.265808 
	C489.661957,801.757385 491.866608,806.350830 493.081818,812.295837 
	C488.935577,811.226013 486.441620,805.983643 482.238464,810.196594 
z"/>
<path fill="#000000" opacity="1.000000" stroke="none" 
	d="
M327.679260,808.752747 
	C329.557373,809.010010 331.176025,809.922363 329.627563,811.212036 
	C327.329803,813.125916 324.206329,812.216675 321.448975,811.875305 
	C319.344635,811.614746 319.163544,809.722351 319.082977,808.017334 
	C319.004364,806.353760 318.910492,804.678711 319.018768,803.021423 
	C319.174072,800.643738 317.950867,797.334229 320.812775,796.327209 
	C323.743134,795.296082 327.217255,795.002991 330.318085,797.129272 
	C329.231384,800.837280 325.113312,797.945923 323.716187,800.481750 
	C324.629059,803.230286 328.519043,800.871216 329.246552,803.903564 
	C328.348145,806.759216 324.600922,804.070068 323.532288,806.810486 
	C323.741821,809.327637 325.829376,808.464111 327.679260,808.752747 
z"/>
<path fill="#000000" opacity="1.000000" stroke="none" 
	d="
M772.688232,807.596069 
	C771.965576,809.248474 772.682556,811.749451 770.184082,811.494568 
	C768.184143,811.290527 768.740173,809.210510 768.683960,807.809875 
	C768.604309,805.825195 768.550781,803.825989 768.700439,801.849182 
	C768.851624,799.852173 767.729492,797.086304 770.584290,796.309204 
	C773.473145,795.522827 776.594849,795.481934 779.043457,797.733093 
	C781.197876,799.713684 781.388184,802.173889 779.522278,804.389160 
	C777.214661,807.129028 781.014099,808.831055 780.434998,811.265381 
	C778.394348,812.753845 777.561951,810.950378 776.485596,809.820435 
	C775.456604,808.740295 775.250732,806.456116 772.688232,807.596069 
M773.755981,799.478271 
	C771.942017,800.506531 771.920837,801.704773 773.708252,802.636536 
	C774.716736,803.162354 776.232117,803.072815 776.721558,801.924194 
	C777.634766,799.781128 775.898560,799.593201 773.755981,799.478271 
z"/>
<path fill="#000000" opacity="1.000000" stroke="none" 
	d="
M470.755615,811.498901 
	C460.533020,813.048889 456.333710,807.580322 460.087402,797.991333 
	C461.509308,794.358948 464.991425,796.282776 467.567932,795.893250 
	C468.834320,795.701904 470.274719,795.790466 470.965851,797.496460 
	C469.880646,801.020752 465.536743,797.901550 464.009613,800.695312 
	C465.402161,803.235413 469.213684,800.703796 470.241241,803.834106 
	C469.242157,807.036682 464.830383,803.674500 463.880188,807.068176 
	C464.616333,809.332458 466.584930,808.419983 468.068268,808.708862 
	C469.544464,808.996399 471.794037,808.363953 470.755615,811.498901 
z"/>
<path fill="#000000" opacity="1.000000" stroke="none" 
	d="
M382.996094,795.822510 
	C385.327362,796.003601 387.428894,795.397278 388.947937,797.172119 
	C387.922363,801.134705 383.425110,797.675354 382.081421,800.735352 
	C383.260223,803.063660 386.788818,801.119324 387.771423,803.859802 
	C386.896393,806.854126 382.725494,803.859070 381.834900,807.213379 
	C383.215973,810.208313 386.961212,807.417969 389.006622,810.293701 
	C386.658508,813.395447 382.770996,812.862000 380.414825,811.788818 
	C374.961914,809.305176 378.628998,803.900635 377.868011,799.844543 
	C377.232300,796.456421 379.675659,795.658936 382.996094,795.822510 
z"/>
<path fill="#000000" opacity="1.000000" stroke="none" 
	d="
M728.051270,810.167358 
	C728.082947,805.244629 726.765381,800.528259 728.948242,796.010986 
	C732.525757,797.110352 730.116333,802.000366 734.531128,802.009155 
	C738.931763,802.017883 736.468933,796.993958 739.423889,796.325989 
	C742.011902,799.742676 742.007507,808.140259 739.456848,811.597107 
	C737.917786,811.383118 737.779724,810.188599 737.738037,809.014465 
	C737.666016,806.984985 737.186340,805.434326 734.688904,805.416443 
	C732.390503,805.400024 731.453552,806.515015 731.291382,808.721863 
	C731.150146,810.645508 730.831177,812.705811 728.051270,810.167358 
z"/>
<path fill="#000000" opacity="1.000000" stroke="none" 
	d="
M596.774048,810.113037 
	C594.131958,813.531067 590.607666,812.479736 587.653748,811.656921 
	C584.844788,810.874512 586.059937,807.719238 585.857422,805.521545 
	C585.766418,804.533569 585.744202,803.517944 585.864868,802.536194 
	C586.131897,800.363892 584.745544,797.270630 587.580017,796.365295 
	C590.570679,795.410217 593.983337,794.978638 596.969849,797.188721 
	C595.851074,801.119019 591.385193,797.620911 590.009644,800.722961 
	C591.163879,803.090332 594.788391,800.932861 595.672424,803.839478 
	C594.839050,806.791870 590.643433,803.911194 589.763855,807.190674 
	C591.298218,810.128967 594.935120,807.518677 596.774048,810.113037 
z"/>
<path fill="#000000" opacity="1.000000" stroke="none" 
	d="
M690.059937,797.456482 
	C693.776062,795.214172 697.165100,795.272339 700.803833,797.268738 
	C699.089783,800.755798 695.244080,798.138977 693.714172,800.731567 
	C695.215210,802.954407 698.625916,800.979065 699.661011,803.813538 
	C698.825317,806.903381 694.078552,803.653442 693.625671,807.460327 
	C695.196838,810.057739 698.578735,807.488953 700.469971,810.057617 
	C698.407532,813.472290 695.049805,812.011719 692.282410,811.904785 
	C689.501160,811.797180 689.700134,809.333496 689.704529,807.348145 
	C689.711487,804.192078 689.816650,801.036255 690.059937,797.456482 
z"/>
<path fill="#000000" opacity="1.000000" stroke="none" 
	d="
M758.251038,796.013855 
	C760.816284,797.127747 761.310242,798.261047 758.614868,799.148132 
	C757.025330,799.671326 755.009949,798.841797 753.653809,800.405151 
	C754.783936,803.161804 758.594055,800.909180 759.285522,804.012695 
	C758.245483,806.712646 754.633667,804.098755 753.438660,806.936462 
	C754.487488,810.494324 758.790527,807.281372 760.704956,810.623291 
	C758.060120,813.125488 754.743225,812.254578 751.811829,811.813354 
	C749.149170,811.412476 749.748169,808.834717 749.640503,806.916626 
	C749.584717,805.923462 749.633362,804.924683 749.627441,803.928406 
	C749.579102,795.765869 749.578613,795.765869 758.251038,796.013855 
z"/>
<path fill="#000000" opacity="1.000000" stroke="none" 
	d="
M238.301514,812.074707 
	C232.475739,809.667908 230.502472,806.063354 232.073349,801.110596 
	C233.399445,796.929565 236.628326,795.543640 240.658417,795.956116 
	C242.507675,796.145386 244.771881,796.396729 244.850693,799.662109 
	C241.347717,800.458130 234.988693,797.255188 235.494980,804.434082 
	C235.947128,810.845215 241.414078,807.420288 245.033737,807.911438 
	C244.341370,811.942505 241.491302,811.989014 238.301514,812.074707 
z"/>
<path fill="#000000" opacity="1.000000" stroke="none" 
	d="
M345.906067,795.873169 
	C348.491943,796.316650 350.989685,796.375916 351.282593,800.005371 
	C347.499390,800.293457 341.794189,797.479614 341.629425,804.010010 
	C341.453461,810.983459 347.578369,807.230103 351.231964,808.163574 
	C350.097839,811.772339 347.498169,812.335693 344.865417,812.010376 
	C341.310608,811.571411 338.593079,809.632568 337.884216,805.856689 
	C337.224182,802.340576 337.871094,799.114929 341.266510,797.199097 
	C342.530701,796.485779 344.092285,796.299438 345.906067,795.873169 
z"/>
<path fill="#000000" opacity="1.000000" stroke="none" 
	d="
M533.883057,801.630493 
	C533.525208,799.084106 530.530090,799.645874 529.897339,796.915833 
	C533.990540,795.228271 537.884094,795.475708 542.426880,797.227539 
	C534.932556,800.176819 540.306213,807.643677 536.556458,812.388489 
	C532.649048,809.278564 534.715271,805.289246 533.883057,801.630493 
z"/>
<path fill="#000000" opacity="1.000000" stroke="none" 
	d="
M629.602661,800.833740 
	C628.772217,799.052734 626.505188,799.562073 626.151917,797.751099 
	C629.283081,795.078308 634.386108,795.002075 638.381470,798.002014 
	C629.597351,799.681396 636.764893,807.988831 632.086609,811.940491 
	C628.336548,808.811584 630.794128,804.605164 629.602661,800.833740 
z"/>
<path fill="#000000" opacity="1.000000" stroke="none" 
	d="
M368.317810,795.934692 
	C370.280273,796.433228 371.437347,798.080566 369.819794,798.618835 
	C364.895020,800.257812 366.516968,804.065186 366.228180,807.290039 
	C366.061768,809.148254 366.563629,811.347900 363.562958,812.005371 
	C361.723602,809.266846 362.619324,806.352356 362.733551,803.714050 
	C362.882538,800.272766 360.843719,799.098755 357.064362,798.406494 
	C360.855438,794.473267 364.649628,796.375671 368.317810,795.934692 
z"/>
<path fill="#000000" opacity="1.000000" stroke="none" 
	d="
M716.880127,800.368103 
	C715.207886,804.168335 717.636475,808.488525 714.476562,812.258118 
	C710.135376,808.000610 716.541809,799.723816 707.969971,798.293091 
	C710.793030,795.216492 716.275635,794.956909 720.232666,797.410156 
	C720.295837,799.585449 718.079285,799.084106 716.880127,800.368103 
z"/>
<path fill="#000000" opacity="1.000000" stroke="none" 
	d="
M509.279236,811.866943 
	C507.062195,812.024841 505.233582,812.109497 503.406952,812.078064 
	C502.211853,812.057556 500.728210,811.798828 500.727020,810.399109 
	C500.723083,805.758850 499.947540,801.015808 501.530853,795.938049 
	C504.910309,797.978394 504.032654,800.708008 504.093018,802.957581 
	C504.178528,806.144226 504.064362,809.019104 508.600067,808.916077 
	C510.291473,808.877563 511.632172,809.920898 509.279236,811.866943 
z"/>
<path fill="#000000" opacity="1.000000" stroke="none" 
	d="
M755.478271,433.152649 
	C753.613770,435.530487 751.696533,436.487122 749.361755,434.540741 
	C747.807434,433.245056 747.315613,431.497131 748.169067,429.635345 
	C748.992371,427.839203 750.521362,426.632538 752.529297,427.169891 
	C755.331482,427.919800 756.586670,429.849609 755.478271,433.152649 
z"/>
<path fill="#000000" opacity="1.000000" stroke="none" 
	d="
M271.738434,439.826447 
	C270.937958,442.469604 269.476044,443.862366 266.965942,443.517761 
	C265.158325,443.269592 264.058502,442.012085 263.785675,440.236267 
	C263.412231,437.805542 264.394745,435.871643 266.823151,435.381042 
	C269.869202,434.765625 271.290558,436.677277 271.738434,439.826447 
z"/>
<path fill="#000000" opacity="1.000000" stroke="none" 
	d="
M665.515076,246.225006 
	C664.709290,243.373276 665.566467,241.573074 668.125000,241.012741 
	C669.912720,240.621246 671.401855,241.542801 672.165039,243.199478 
	C672.922363,244.843430 672.779236,246.554688 671.209717,247.662125 
	C669.083313,249.162445 667.166138,248.714081 665.515076,246.225006 
z"/>
<path fill="#000000" opacity="1.000000" stroke="none" 
	d="
M553.101074,809.385437 
	C552.516663,811.241577 551.751038,812.382507 550.290161,810.797546 
	C548.835449,809.219482 549.804260,798.589294 551.861023,795.881042 
	C554.305725,800.288452 552.791809,804.751587 553.101074,809.385437 
z"/>
<path fill="#000000" opacity="1.000000" stroke="none" 
	d="
M748.548462,452.951233 
	C747.296082,450.320190 747.673218,448.381775 750.045593,447.200653 
	C751.510742,446.471222 752.966064,446.736511 754.157471,447.930054 
	C755.353821,449.128510 755.609863,450.685638 754.902405,452.066498 
	C753.450195,454.901093 751.268005,455.152161 748.548462,452.951233 
z"/>
<path fill="#000000" opacity="1.000000" stroke="none" 
	d="
M265.725830,424.521851 
	C263.762787,422.348236 263.498444,420.377960 265.526672,418.599701 
	C266.944763,417.356506 268.618195,417.406860 270.104919,418.534210 
	C271.532104,419.616364 272.399536,421.094177 271.476990,422.867432 
	C270.309875,425.110779 268.426361,425.785980 265.725830,424.521851 
z"/>
<path fill="#000000" opacity="1.000000" stroke="none" 
	d="
M364.494476,632.924683 
	C363.564667,635.748840 361.821075,636.684326 359.410583,635.704041 
	C357.755402,635.030823 356.858917,633.518677 357.119354,631.700745 
	C357.349884,630.091797 358.425659,628.985352 360.118378,628.881348 
	C362.674713,628.724365 364.130768,630.044067 364.494476,632.924683 
z"/>
<path fill="#000000" opacity="1.000000" stroke="none" 
	d="
M371.789703,640.873840 
	C373.686890,638.833069 375.497467,638.674500 377.238403,640.370667 
	C378.615021,641.711975 378.656891,643.372742 377.571442,644.902649 
	C376.597290,646.275818 375.076447,646.679138 373.572784,646.031494 
	C371.453979,645.118958 370.561951,643.500000 371.789703,640.873840 
z"/>
<path fill="#000000" opacity="1.000000" stroke="none" 
	d="
M652.306946,232.571381 
	C654.461121,230.432434 656.371338,230.470078 658.096497,232.459763 
	C659.020325,233.525146 659.304382,234.826996 658.439331,236.111389 
	C657.550171,237.431763 656.286682,238.394974 654.689392,237.882187 
	C652.336914,237.126953 651.193115,235.484009 652.306946,232.571381 
z"/>
<path fill="#000000" opacity="1.000000" stroke="none" 
	d="
M523.734985,805.039795 
	C521.432739,806.692078 519.330566,806.559448 516.186218,804.721985 
	C519.369202,802.859131 521.488770,801.748901 523.734985,805.039795 
z"/>
<path fill="#000000" opacity="1.000000" stroke="none" 
	d="
M523.462891,441.490295 
	C521.154480,443.311920 521.171631,445.258759 521.802246,447.560242 
	C523.162048,452.523041 524.166260,457.585266 525.588501,462.528381 
	C526.647522,466.208832 525.288086,467.405212 521.764221,467.351715 
	C515.613953,467.258301 509.459595,467.229462 503.310394,467.349640 
	C499.782135,467.418579 498.907410,465.815155 499.747742,462.691986 
	C501.085144,457.721466 502.336060,452.726776 503.744080,447.776581 
	C504.433197,445.353821 504.194031,443.606689 502.251648,441.577393 
	C495.420288,434.440308 495.485168,425.366730 502.037476,418.932770 
	C507.670166,413.401825 517.469849,413.378387 523.326721,418.881897 
	C529.690735,424.861969 529.854980,433.978546 523.462891,441.490295 
z"/>
</svg>